<?xml version="1.0" encoding="UTF-8" standalone="no"?>
<!DOCTYPE svg PUBLIC "-//W3C//DTD SVG 1.1//EN"
 "http://www.w3.org/Graphics/SVG/1.1/DTD/svg11.dtd">
<!-- Generated by graphviz version 2.40.1 (20161225.0304)
 -->
<!-- Title: snakemake_dag Pages: 1 -->
<svg width="395pt" height="260pt"
 viewBox="0.00 0.00 394.50 260.00" xmlns="http://www.w3.org/2000/svg" xmlns:xlink="http://www.w3.org/1999/xlink">
<g id="graph0" class="graph" transform="scale(1 1) rotate(0) translate(4 256)">
<title>snakemake_dag</title>
<polygon fill="#ffffff" stroke="transparent" points="-4,4 -4,-256 390.5,-256 390.5,4 -4,4"/>
<!-- 0 -->
<g id="node1" class="node">
<title>0</title>
<path fill="none" stroke="#56d8a9" stroke-width="2" d="M147.5,-36C147.5,-36 117.5,-36 117.5,-36 111.5,-36 105.5,-30 105.5,-24 105.5,-24 105.5,-12 105.5,-12 105.5,-6 111.5,0 117.5,0 117.5,0 147.5,0 147.5,0 153.5,0 159.5,-6 159.5,-12 159.5,-12 159.5,-24 159.5,-24 159.5,-30 153.5,-36 147.5,-36"/>
<text text-anchor="middle" x="132.5" y="-15.5" font-family="sans" font-size="10.00" fill="#000000">all</text>
</g>
<!-- 1 -->
<g id="node2" class="node">
<title>1</title>
<path fill="none" stroke="#70d856" stroke-width="2" d="M75.5,-108C75.5,-108 45.5,-108 45.5,-108 39.5,-108 33.5,-102 33.5,-96 33.5,-96 33.5,-84 33.5,-84 33.5,-78 39.5,-72 45.5,-72 45.5,-72 75.5,-72 75.5,-72 81.5,-72 87.5,-78 87.5,-84 87.5,-84 87.5,-96 87.5,-96 87.5,-102 81.5,-108 75.5,-108"/>
<text text-anchor="middle" x="60.5" y="-87.5" font-family="sans" font-size="10.00" fill="#000000">fastqc</text>
</g>
<!-- 1&#45;&gt;0 -->
<g id="edge3" class="edge">
<title>1&#45;&gt;0</title>
<path fill="none" stroke="#c0c0c0" stroke-width="2" d="M78.6686,-71.8314C87.2152,-63.2848 97.5557,-52.9443 106.8802,-43.6198"/>
<polygon fill="#c0c0c0" stroke="#c0c0c0" stroke-width="2" points="109.4905,-45.9592 114.0867,-36.4133 104.5408,-41.0095 109.4905,-45.9592"/>
</g>
<!-- 2 -->
<g id="node3" class="node">
<title>2</title>
<path fill="none" stroke="#d88d56" stroke-width="2" d="M147.5,-108C147.5,-108 117.5,-108 117.5,-108 111.5,-108 105.5,-102 105.5,-96 105.5,-96 105.5,-84 105.5,-84 105.5,-78 111.5,-72 117.5,-72 117.5,-72 147.5,-72 147.5,-72 153.5,-72 159.5,-78 159.5,-84 159.5,-84 159.5,-96 159.5,-96 159.5,-102 153.5,-108 147.5,-108"/>
<text text-anchor="middle" x="132.5" y="-87.5" font-family="sans" font-size="10.00" fill="#000000">report</text>
</g>
<!-- 2&#45;&gt;0 -->
<g id="edge2" class="edge">
<title>2&#45;&gt;0</title>
<path fill="none" stroke="#c0c0c0" stroke-width="2" d="M132.5,-71.8314C132.5,-64.131 132.5,-54.9743 132.5,-46.4166"/>
<polygon fill="#c0c0c0" stroke="#c0c0c0" stroke-width="2" points="136.0001,-46.4132 132.5,-36.4133 129.0001,-46.4133 136.0001,-46.4132"/>
</g>
<!-- 3 -->
<g id="node4" class="node">
<title>3</title>
<path fill="none" stroke="#afd856" stroke-width="2" d="M229,-108C229,-108 190,-108 190,-108 184,-108 178,-102 178,-96 178,-96 178,-84 178,-84 178,-78 184,-72 190,-72 190,-72 229,-72 229,-72 235,-72 241,-78 241,-84 241,-84 241,-96 241,-96 241,-102 235,-108 229,-108"/>
<text text-anchor="middle" x="209.5" y="-87.5" font-family="sans" font-size="10.00" fill="#000000">do_deseq</text>
</g>
<!-- 3&#45;&gt;0 -->
<g id="edge1" class="edge">
<title>3&#45;&gt;0</title>
<path fill="none" stroke="#c0c0c0" stroke-width="2" d="M190.0696,-71.8314C180.768,-63.1337 169.4796,-52.5783 159.3714,-43.1265"/>
<polygon fill="#c0c0c0" stroke="#c0c0c0" stroke-width="2" points="161.6189,-40.4363 151.9241,-36.1628 156.8379,-45.5493 161.6189,-40.4363"/>
</g>
<!-- 4 -->
<g id="node5" class="node">
<title>4</title>
<path fill="none" stroke="#56c9d8" stroke-width="2" d="M117,-180C117,-180 12,-180 12,-180 6,-180 0,-174 0,-168 0,-168 0,-156 0,-156 0,-150 6,-144 12,-144 12,-144 117,-144 117,-144 123,-144 129,-150 129,-156 129,-156 129,-168 129,-168 129,-174 123,-180 117,-180"/>
<text text-anchor="middle" x="64.5" y="-159.5" font-family="sans" font-size="10.00" fill="#000000">create_cofig_for_deseq</text>
</g>
<!-- 4&#45;&gt;3 -->
<g id="edge6" class="edge">
<title>4&#45;&gt;3</title>
<path fill="none" stroke="#c0c0c0" stroke-width="2" d="M101.0896,-143.8314C121.6987,-133.5979 147.4871,-120.7926 168.7409,-110.239"/>
<polygon fill="#c0c0c0" stroke="#c0c0c0" stroke-width="2" points="170.4471,-113.2996 177.8471,-105.7173 167.3339,-107.0299 170.4471,-113.2996"/>
</g>
<!-- 5 -->
<g id="node6" class="node">
<title>5</title>
<path fill="none" stroke="#d85656" stroke-width="2" d="M260,-180C260,-180 159,-180 159,-180 153,-180 147,-174 147,-168 147,-168 147,-156 147,-156 147,-150 153,-144 159,-144 159,-144 260,-144 260,-144 266,-144 272,-150 272,-156 272,-156 272,-168 272,-168 272,-174 266,-180 260,-180"/>
<text text-anchor="middle" x="209.5" y="-159.5" font-family="sans" font-size="10.00" fill="#000000">salmon_quantification</text>
</g>
<!-- 5&#45;&gt;3 -->
<g id="edge4" class="edge">
<title>5&#45;&gt;3</title>
<path fill="none" stroke="#c0c0c0" stroke-width="2" d="M209.5,-143.8314C209.5,-136.131 209.5,-126.9743 209.5,-118.4166"/>
<polygon fill="#c0c0c0" stroke="#c0c0c0" stroke-width="2" points="213.0001,-118.4132 209.5,-108.4133 206.0001,-118.4133 213.0001,-118.4132"/>
</g>
<!-- 6 -->
<g id="node7" class="node">
<title>6</title>
<path fill="none" stroke="#d8cb56" stroke-width="2" d="M374.5,-180C374.5,-180 302.5,-180 302.5,-180 296.5,-180 290.5,-174 290.5,-168 290.5,-168 290.5,-156 290.5,-156 290.5,-150 296.5,-144 302.5,-144 302.5,-144 374.5,-144 374.5,-144 380.5,-144 386.5,-150 386.5,-156 386.5,-156 386.5,-168 386.5,-168 386.5,-174 380.5,-180 374.5,-180"/>
<text text-anchor="middle" x="338.5" y="-159.5" font-family="sans" font-size="10.00" fill="#000000">parseTranscripts</text>
</g>
<!-- 6&#45;&gt;3 -->
<g id="edge5" class="edge">
<title>6&#45;&gt;3</title>
<path fill="none" stroke="#c0c0c0" stroke-width="2" d="M305.9479,-143.8314C289.0409,-134.3949 268.216,-122.7717 250.249,-112.7436"/>
<polygon fill="#c0c0c0" stroke="#c0c0c0" stroke-width="2" points="251.5876,-109.4825 241.1499,-107.665 248.176,-115.5949 251.5876,-109.4825"/>
</g>
<!-- 7 -->
<g id="node8" class="node">
<title>7</title>
<path fill="none" stroke="#56d873" stroke-width="2" d="M79.5,-252C79.5,-252 49.5,-252 49.5,-252 43.5,-252 37.5,-246 37.5,-240 37.5,-240 37.5,-228 37.5,-228 37.5,-222 43.5,-216 49.5,-216 49.5,-216 79.5,-216 79.5,-216 85.5,-216 91.5,-222 91.5,-228 91.5,-228 91.5,-240 91.5,-240 91.5,-246 85.5,-252 79.5,-252"/>
<text text-anchor="middle" x="64.5" y="-231.5" font-family="sans" font-size="10.00" fill="#000000">init_R</text>
</g>
<!-- 7&#45;&gt;4 -->
<g id="edge7" class="edge">
<title>7&#45;&gt;4</title>
<path fill="none" stroke="#c0c0c0" stroke-width="2" d="M64.5,-215.8314C64.5,-208.131 64.5,-198.9743 64.5,-190.4166"/>
<polygon fill="#c0c0c0" stroke="#c0c0c0" stroke-width="2" points="68.0001,-190.4132 64.5,-180.4133 61.0001,-190.4133 68.0001,-190.4132"/>
</g>
<!-- 8 -->
<g id="node9" class="node">
<title>8</title>
<path fill="none" stroke="#5692d8" stroke-width="2" d="M254.5,-252C254.5,-252 164.5,-252 164.5,-252 158.5,-252 152.5,-246 152.5,-240 152.5,-240 152.5,-228 152.5,-228 152.5,-222 158.5,-216 164.5,-216 164.5,-216 254.5,-216 254.5,-216 260.5,-216 266.5,-222 266.5,-228 266.5,-228 266.5,-240 266.5,-240 266.5,-246 260.5,-252 254.5,-252"/>
<text text-anchor="middle" x="209.5" y="-231.5" font-family="sans" font-size="10.00" fill="#000000">salmon_build_index</text>
</g>
<!-- 8&#45;&gt;5 -->
<g id="edge8" class="edge">
<title>8&#45;&gt;5</title>
<path fill="none" stroke="#c0c0c0" stroke-width="2" d="M209.5,-215.8314C209.5,-208.131 209.5,-198.9743 209.5,-190.4166"/>
<polygon fill="#c0c0c0" stroke="#c0c0c0" stroke-width="2" points="213.0001,-190.4132 209.5,-180.4133 206.0001,-190.4133 213.0001,-190.4132"/>
</g>
</g>
</svg>
