<?xml version="1.0" encoding="UTF-8" standalone="no"?>
<!DOCTYPE svg PUBLIC "-//W3C//DTD SVG 1.1//EN"
 "http://www.w3.org/Graphics/SVG/1.1/DTD/svg11.dtd">
<!-- Generated by graphviz version 2.40.1 (20161225.0304)
 -->
<!-- Title: snakemake_dag Pages: 1 -->
<svg width="388pt" height="332pt"
 viewBox="0.00 0.00 387.50 332.00" xmlns="http://www.w3.org/2000/svg" xmlns:xlink="http://www.w3.org/1999/xlink">
<g id="graph0" class="graph" transform="scale(1 1) rotate(0) translate(4 328)">
<title>snakemake_dag</title>
<polygon fill="#ffffff" stroke="transparent" points="-4,4 -4,-328 383.5,-328 383.5,4 -4,4"/>
<!-- 0 -->
<g id="node1" class="node">
<title>0</title>
<path fill="none" stroke="#56d86b" stroke-width="2" d="M178.5,-36C178.5,-36 148.5,-36 148.5,-36 142.5,-36 136.5,-30 136.5,-24 136.5,-24 136.5,-12 136.5,-12 136.5,-6 142.5,0 148.5,0 148.5,0 178.5,0 178.5,0 184.5,0 190.5,-6 190.5,-12 190.5,-12 190.5,-24 190.5,-24 190.5,-30 184.5,-36 178.5,-36"/>
<text text-anchor="middle" x="163.5" y="-15.5" font-family="sans" font-size="10.00" fill="#000000">all</text>
</g>
<!-- 1 -->
<g id="node2" class="node">
<title>1</title>
<path fill="none" stroke="#70d856" stroke-width="2" d="M136.5,-108C136.5,-108 106.5,-108 106.5,-108 100.5,-108 94.5,-102 94.5,-96 94.5,-96 94.5,-84 94.5,-84 94.5,-78 100.5,-72 106.5,-72 106.5,-72 136.5,-72 136.5,-72 142.5,-72 148.5,-78 148.5,-84 148.5,-84 148.5,-96 148.5,-96 148.5,-102 142.5,-108 136.5,-108"/>
<text text-anchor="middle" x="121.5" y="-87.5" font-family="sans" font-size="10.00" fill="#000000">fastqc</text>
</g>
<!-- 1&#45;&gt;0 -->
<g id="edge2" class="edge">
<title>1&#45;&gt;0</title>
<path fill="none" stroke="#c0c0c0" stroke-width="2" d="M132.0984,-71.8314C136.7877,-63.7925 142.4028,-54.1666 147.5798,-45.2918"/>
<polygon fill="#c0c0c0" stroke="#c0c0c0" stroke-width="2" points="150.7434,-46.8146 152.7589,-36.4133 144.6969,-43.2875 150.7434,-46.8146"/>
</g>
<!-- 2 -->
<g id="node3" class="node">
<title>2</title>
<path fill="none" stroke="#9fd856" stroke-width="2" d="M234.5,-108C234.5,-108 178.5,-108 178.5,-108 172.5,-108 166.5,-102 166.5,-96 166.5,-96 166.5,-84 166.5,-84 166.5,-78 172.5,-72 178.5,-72 178.5,-72 234.5,-72 234.5,-72 240.5,-72 246.5,-78 246.5,-84 246.5,-84 246.5,-96 246.5,-96 246.5,-102 240.5,-108 234.5,-108"/>
<text text-anchor="middle" x="206.5" y="-87.5" font-family="sans" font-size="10.00" fill="#000000">deseq_report</text>
</g>
<!-- 2&#45;&gt;0 -->
<g id="edge1" class="edge">
<title>2&#45;&gt;0</title>
<path fill="none" stroke="#c0c0c0" stroke-width="2" d="M195.6493,-71.8314C190.7977,-63.7079 184.9783,-53.9637 179.632,-45.0118"/>
<polygon fill="#c0c0c0" stroke="#c0c0c0" stroke-width="2" points="182.6292,-43.2041 174.4968,-36.4133 176.6194,-46.7933 182.6292,-43.2041"/>
</g>
<!-- 3 -->
<g id="node4" class="node">
<title>3</title>
<path fill="none" stroke="#d88556" stroke-width="2" d="M226,-180C226,-180 187,-180 187,-180 181,-180 175,-174 175,-168 175,-168 175,-156 175,-156 175,-150 181,-144 187,-144 187,-144 226,-144 226,-144 232,-144 238,-150 238,-156 238,-156 238,-168 238,-168 238,-174 232,-180 226,-180"/>
<text text-anchor="middle" x="206.5" y="-159.5" font-family="sans" font-size="10.00" fill="#000000">do_deseq</text>
</g>
<!-- 3&#45;&gt;2 -->
<g id="edge3" class="edge">
<title>3&#45;&gt;2</title>
<path fill="none" stroke="#c0c0c0" stroke-width="2" d="M206.5,-143.8314C206.5,-136.131 206.5,-126.9743 206.5,-118.4166"/>
<polygon fill="#c0c0c0" stroke="#c0c0c0" stroke-width="2" points="210.0001,-118.4132 206.5,-108.4133 203.0001,-118.4133 210.0001,-118.4132"/>
</g>
<!-- 4 -->
<g id="node5" class="node">
<title>4</title>
<path fill="none" stroke="#d85656" stroke-width="2" d="M117,-252C117,-252 12,-252 12,-252 6,-252 0,-246 0,-240 0,-240 0,-228 0,-228 0,-222 6,-216 12,-216 12,-216 117,-216 117,-216 123,-216 129,-222 129,-228 129,-228 129,-240 129,-240 129,-246 123,-252 117,-252"/>
<text text-anchor="middle" x="64.5" y="-231.5" font-family="sans" font-size="10.00" fill="#000000">create_cofig_for_deseq</text>
</g>
<!-- 4&#45;&gt;3 -->
<g id="edge4" class="edge">
<title>4&#45;&gt;3</title>
<path fill="none" stroke="#c0c0c0" stroke-width="2" d="M100.3326,-215.8314C120.1398,-205.7883 144.8322,-193.2682 165.4179,-182.8303"/>
<polygon fill="#c0c0c0" stroke="#c0c0c0" stroke-width="2" points="167.2188,-185.8415 174.555,-178.1975 164.0532,-179.5982 167.2188,-185.8415"/>
</g>
<!-- 5 -->
<g id="node6" class="node">
<title>5</title>
<path fill="none" stroke="#56d8c9" stroke-width="2" d="M253.5,-252C253.5,-252 159.5,-252 159.5,-252 153.5,-252 147.5,-246 147.5,-240 147.5,-240 147.5,-228 147.5,-228 147.5,-222 153.5,-216 159.5,-216 159.5,-216 253.5,-216 253.5,-216 259.5,-216 265.5,-222 265.5,-228 265.5,-228 265.5,-240 265.5,-240 265.5,-246 259.5,-252 253.5,-252"/>
<text text-anchor="middle" x="206.5" y="-231.5" font-family="sans" font-size="10.00" fill="#000000">salmon_quant_reads</text>
</g>
<!-- 5&#45;&gt;3 -->
<g id="edge6" class="edge">
<title>5&#45;&gt;3</title>
<path fill="none" stroke="#c0c0c0" stroke-width="2" d="M206.5,-215.8314C206.5,-208.131 206.5,-198.9743 206.5,-190.4166"/>
<polygon fill="#c0c0c0" stroke="#c0c0c0" stroke-width="2" points="210.0001,-190.4132 206.5,-180.4133 203.0001,-190.4133 210.0001,-190.4132"/>
</g>
<!-- 6 -->
<g id="node7" class="node">
<title>6</title>
<path fill="none" stroke="#ced856" stroke-width="2" d="M367.5,-252C367.5,-252 295.5,-252 295.5,-252 289.5,-252 283.5,-246 283.5,-240 283.5,-240 283.5,-228 283.5,-228 283.5,-222 289.5,-216 295.5,-216 295.5,-216 367.5,-216 367.5,-216 373.5,-216 379.5,-222 379.5,-228 379.5,-228 379.5,-240 379.5,-240 379.5,-246 373.5,-252 367.5,-252"/>
<text text-anchor="middle" x="331.5" y="-231.5" font-family="sans" font-size="10.00" fill="#000000">parseTranscripts</text>
</g>
<!-- 6&#45;&gt;3 -->
<g id="edge5" class="edge">
<title>6&#45;&gt;3</title>
<path fill="none" stroke="#c0c0c0" stroke-width="2" d="M299.9572,-215.8314C283.8209,-206.5368 264.0014,-195.1208 246.7728,-185.1971"/>
<polygon fill="#c0c0c0" stroke="#c0c0c0" stroke-width="2" points="248.445,-182.1212 238.0327,-180.1628 244.9511,-188.187 248.445,-182.1212"/>
</g>
<!-- 7 -->
<g id="node8" class="node">
<title>7</title>
<path fill="none" stroke="#d8b456" stroke-width="2" d="M79.5,-324C79.5,-324 49.5,-324 49.5,-324 43.5,-324 37.5,-318 37.5,-312 37.5,-312 37.5,-300 37.5,-300 37.5,-294 43.5,-288 49.5,-288 49.5,-288 79.5,-288 79.5,-288 85.5,-288 91.5,-294 91.5,-300 91.5,-300 91.5,-312 91.5,-312 91.5,-318 85.5,-324 79.5,-324"/>
<text text-anchor="middle" x="64.5" y="-303.5" font-family="sans" font-size="10.00" fill="#000000">init_R</text>
</g>
<!-- 7&#45;&gt;4 -->
<g id="edge7" class="edge">
<title>7&#45;&gt;4</title>
<path fill="none" stroke="#c0c0c0" stroke-width="2" d="M64.5,-287.8314C64.5,-280.131 64.5,-270.9743 64.5,-262.4166"/>
<polygon fill="#c0c0c0" stroke="#c0c0c0" stroke-width="2" points="68.0001,-262.4132 64.5,-252.4133 61.0001,-262.4133 68.0001,-262.4132"/>
</g>
<!-- 8 -->
<g id="node9" class="node">
<title>8</title>
<path fill="none" stroke="#56b1d8" stroke-width="2" d="M251.5,-324C251.5,-324 161.5,-324 161.5,-324 155.5,-324 149.5,-318 149.5,-312 149.5,-312 149.5,-300 149.5,-300 149.5,-294 155.5,-288 161.5,-288 161.5,-288 251.5,-288 251.5,-288 257.5,-288 263.5,-294 263.5,-300 263.5,-300 263.5,-312 263.5,-312 263.5,-318 257.5,-324 251.5,-324"/>
<text text-anchor="middle" x="206.5" y="-303.5" font-family="sans" font-size="10.00" fill="#000000">salmon_build_index</text>
</g>
<!-- 8&#45;&gt;5 -->
<g id="edge8" class="edge">
<title>8&#45;&gt;5</title>
<path fill="none" stroke="#c0c0c0" stroke-width="2" d="M206.5,-287.8314C206.5,-280.131 206.5,-270.9743 206.5,-262.4166"/>
<polygon fill="#c0c0c0" stroke="#c0c0c0" stroke-width="2" points="210.0001,-262.4132 206.5,-252.4133 203.0001,-262.4133 210.0001,-262.4132"/>
</g>
</g>
</svg>
