<?xml version="1.0" encoding="UTF-8" standalone="no"?>
<!DOCTYPE svg PUBLIC "-//W3C//DTD SVG 1.1//EN"
 "http://www.w3.org/Graphics/SVG/1.1/DTD/svg11.dtd">
<!-- Generated by graphviz version 2.38.0 (20140413.2041)
 -->
<!-- Title: snakemake_dag Pages: 1 -->
<svg width="319pt" height="260pt"
 viewBox="0.00 0.00 318.50 260.00" xmlns="http://www.w3.org/2000/svg" xmlns:xlink="http://www.w3.org/1999/xlink">
<g id="graph0" class="graph" transform="scale(1 1) rotate(0) translate(4 256)">
<title>snakemake_dag</title>
<polygon fill="white" stroke="none" points="-4,4 -4,-256 314.5,-256 314.5,4 -4,4"/>
<!-- 0 -->
<g id="node1" class="node"><title>0</title>
<path fill="none" stroke="#56d8d8" stroke-width="2" d="M226.5,-36C226.5,-36 196.5,-36 196.5,-36 190.5,-36 184.5,-30 184.5,-24 184.5,-24 184.5,-12 184.5,-12 184.5,-6 190.5,-0 196.5,-0 196.5,-0 226.5,-0 226.5,-0 232.5,-0 238.5,-6 238.5,-12 238.5,-12 238.5,-24 238.5,-24 238.5,-30 232.5,-36 226.5,-36"/>
<text text-anchor="middle" x="211.5" y="-15.5" font-family="sans" font-size="10.00">all</text>
</g>
<!-- 1 -->
<g id="node2" class="node"><title>1</title>
<path fill="none" stroke="#d85656" stroke-width="2" d="M154,-108C154,-108 115,-108 115,-108 109,-108 103,-102 103,-96 103,-96 103,-84 103,-84 103,-78 109,-72 115,-72 115,-72 154,-72 154,-72 160,-72 166,-78 166,-84 166,-84 166,-96 166,-96 166,-102 160,-108 154,-108"/>
<text text-anchor="middle" x="134.5" y="-87.5" font-family="sans" font-size="10.00">do_deseq</text>
</g>
<!-- 1&#45;&gt;0 -->
<g id="edge1" class="edge"><title>1&#45;&gt;0</title>
<path fill="none" stroke="grey" stroke-width="2" d="M153.534,-71.6966C163.045,-63.0503 174.707,-52.4486 185.07,-43.027"/>
<polygon fill="grey" stroke="grey" stroke-width="2" points="187.64,-45.4209 192.685,-36.1043 182.931,-40.2413 187.64,-45.4209"/>
</g>
<!-- 2 -->
<g id="node3" class="node"><title>2</title>
<path fill="none" stroke="#d89556" stroke-width="2" d="M226.5,-108C226.5,-108 196.5,-108 196.5,-108 190.5,-108 184.5,-102 184.5,-96 184.5,-96 184.5,-84 184.5,-84 184.5,-78 190.5,-72 196.5,-72 196.5,-72 226.5,-72 226.5,-72 232.5,-72 238.5,-78 238.5,-84 238.5,-84 238.5,-96 238.5,-96 238.5,-102 232.5,-108 226.5,-108"/>
<text text-anchor="middle" x="211.5" y="-87.5" font-family="sans" font-size="10.00">fastqc</text>
</g>
<!-- 2&#45;&gt;0 -->
<g id="edge2" class="edge"><title>2&#45;&gt;0</title>
<path fill="none" stroke="grey" stroke-width="2" d="M211.5,-71.6966C211.5,-63.9827 211.5,-54.7125 211.5,-46.1124"/>
<polygon fill="grey" stroke="grey" stroke-width="2" points="215,-46.1043 211.5,-36.1043 208,-46.1044 215,-46.1043"/>
</g>
<!-- 3 -->
<g id="node4" class="node"><title>3</title>
<path fill="none" stroke="#569ad8" stroke-width="2" d="M298.5,-108C298.5,-108 268.5,-108 268.5,-108 262.5,-108 256.5,-102 256.5,-96 256.5,-96 256.5,-84 256.5,-84 256.5,-78 262.5,-72 268.5,-72 268.5,-72 298.5,-72 298.5,-72 304.5,-72 310.5,-78 310.5,-84 310.5,-84 310.5,-96 310.5,-96 310.5,-102 304.5,-108 298.5,-108"/>
<text text-anchor="middle" x="283.5" y="-87.5" font-family="sans" font-size="10.00">report</text>
</g>
<!-- 3&#45;&gt;0 -->
<g id="edge3" class="edge"><title>3&#45;&gt;0</title>
<path fill="none" stroke="grey" stroke-width="2" d="M265.702,-71.6966C256.896,-63.135 246.118,-52.6562 236.499,-43.3045"/>
<polygon fill="grey" stroke="grey" stroke-width="2" points="238.703,-40.5657 229.093,-36.1043 233.823,-45.5846 238.703,-40.5657"/>
</g>
<!-- 4 -->
<g id="node5" class="node"><title>4</title>
<path fill="none" stroke="#d6d856" stroke-width="2" d="M113,-180C113,-180 12,-180 12,-180 6,-180 7.10543e-15,-174 7.10543e-15,-168 7.10543e-15,-168 7.10543e-15,-156 7.10543e-15,-156 7.10543e-15,-150 6,-144 12,-144 12,-144 113,-144 113,-144 119,-144 125,-150 125,-156 125,-156 125,-168 125,-168 125,-174 119,-180 113,-180"/>
<text text-anchor="middle" x="62.5" y="-159.5" font-family="sans" font-size="10.00">salmon_quantification</text>
</g>
<!-- 4&#45;&gt;1 -->
<g id="edge5" class="edge"><title>4&#45;&gt;1</title>
<path fill="none" stroke="grey" stroke-width="2" d="M80.2978,-143.697C89.104,-135.135 99.8821,-124.656 109.501,-115.304"/>
<polygon fill="grey" stroke="grey" stroke-width="2" points="112.177,-117.585 116.907,-108.104 107.297,-112.566 112.177,-117.585"/>
</g>
<!-- 5 -->
<g id="node6" class="node"><title>5</title>
<path fill="none" stroke="#56d89a" stroke-width="2" d="M260,-180C260,-180 155,-180 155,-180 149,-180 143,-174 143,-168 143,-168 143,-156 143,-156 143,-150 149,-144 155,-144 155,-144 260,-144 260,-144 266,-144 272,-150 272,-156 272,-156 272,-168 272,-168 272,-174 266,-180 260,-180"/>
<text text-anchor="middle" x="207.5" y="-159.5" font-family="sans" font-size="10.00">create_cofig_for_deseq</text>
</g>
<!-- 5&#45;&gt;1 -->
<g id="edge4" class="edge"><title>5&#45;&gt;1</title>
<path fill="none" stroke="grey" stroke-width="2" d="M189.455,-143.697C180.438,-135.05 169.382,-124.449 159.557,-115.027"/>
<polygon fill="grey" stroke="grey" stroke-width="2" points="161.978,-112.499 152.337,-108.104 157.133,-117.552 161.978,-112.499"/>
</g>
<!-- 6 -->
<g id="node7" class="node"><title>6</title>
<path fill="none" stroke="#59d856" stroke-width="2" d="M107.5,-252C107.5,-252 17.5,-252 17.5,-252 11.5,-252 5.5,-246 5.5,-240 5.5,-240 5.5,-228 5.5,-228 5.5,-222 11.5,-216 17.5,-216 17.5,-216 107.5,-216 107.5,-216 113.5,-216 119.5,-222 119.5,-228 119.5,-228 119.5,-240 119.5,-240 119.5,-246 113.5,-252 107.5,-252"/>
<text text-anchor="middle" x="62.5" y="-231.5" font-family="sans" font-size="10.00">salmon_build_index</text>
</g>
<!-- 6&#45;&gt;4 -->
<g id="edge6" class="edge"><title>6&#45;&gt;4</title>
<path fill="none" stroke="grey" stroke-width="2" d="M62.5,-215.697C62.5,-207.983 62.5,-198.712 62.5,-190.112"/>
<polygon fill="grey" stroke="grey" stroke-width="2" points="66.0001,-190.104 62.5,-180.104 59.0001,-190.104 66.0001,-190.104"/>
</g>
<!-- 7 -->
<g id="node8" class="node"><title>7</title>
<path fill="none" stroke="#97d856" stroke-width="2" d="M222.5,-252C222.5,-252 192.5,-252 192.5,-252 186.5,-252 180.5,-246 180.5,-240 180.5,-240 180.5,-228 180.5,-228 180.5,-222 186.5,-216 192.5,-216 192.5,-216 222.5,-216 222.5,-216 228.5,-216 234.5,-222 234.5,-228 234.5,-228 234.5,-240 234.5,-240 234.5,-246 228.5,-252 222.5,-252"/>
<text text-anchor="middle" x="207.5" y="-231.5" font-family="sans" font-size="10.00">init_R</text>
</g>
<!-- 7&#45;&gt;5 -->
<g id="edge7" class="edge"><title>7&#45;&gt;5</title>
<path fill="none" stroke="grey" stroke-width="2" d="M207.5,-215.697C207.5,-207.983 207.5,-198.712 207.5,-190.112"/>
<polygon fill="grey" stroke="grey" stroke-width="2" points="211,-190.104 207.5,-180.104 204,-190.104 211,-190.104"/>
</g>
</g>
</svg>
