<?xml version="1.0" encoding="UTF-8" standalone="no"?>
<!DOCTYPE svg PUBLIC "-//W3C//DTD SVG 1.1//EN"
 "http://www.w3.org/Graphics/SVG/1.1/DTD/svg11.dtd">
<!-- Generated by graphviz version 2.40.1 (20161225.0304)
 -->
<!-- Title: snakemake_dag Pages: 1 -->
<svg width="402pt" height="332pt"
 viewBox="0.00 0.00 402.00 332.00" xmlns="http://www.w3.org/2000/svg" xmlns:xlink="http://www.w3.org/1999/xlink">
<g id="graph0" class="graph" transform="scale(1 1) rotate(0) translate(4 328)">
<title>snakemake_dag</title>
<polygon fill="#ffffff" stroke="transparent" points="-4,4 -4,-328 398,-328 398,4 -4,4"/>
<!-- 0 -->
<g id="node1" class="node">
<title>0</title>
<path fill="none" stroke="#9fd856" stroke-width="2" d="M310.5,-36C310.5,-36 280.5,-36 280.5,-36 274.5,-36 268.5,-30 268.5,-24 268.5,-24 268.5,-12 268.5,-12 268.5,-6 274.5,0 280.5,0 280.5,0 310.5,0 310.5,0 316.5,0 322.5,-6 322.5,-12 322.5,-12 322.5,-24 322.5,-24 322.5,-30 316.5,-36 310.5,-36"/>
<text text-anchor="middle" x="295.5" y="-15.5" font-family="sans" font-size="10.00" fill="#000000">all</text>
</g>
<!-- 1 -->
<g id="node2" class="node">
<title>1</title>
<path fill="none" stroke="#56d86b" stroke-width="2" d="M291.5,-180C291.5,-180 261.5,-180 261.5,-180 255.5,-180 249.5,-174 249.5,-168 249.5,-168 249.5,-156 249.5,-156 249.5,-150 255.5,-144 261.5,-144 261.5,-144 291.5,-144 291.5,-144 297.5,-144 303.5,-150 303.5,-156 303.5,-156 303.5,-168 303.5,-168 303.5,-174 297.5,-180 291.5,-180"/>
<text text-anchor="middle" x="276.5" y="-159.5" font-family="sans" font-size="10.00" fill="#000000">fastqc</text>
</g>
<!-- 1&#45;&gt;0 -->
<g id="edge1" class="edge">
<title>1&#45;&gt;0</title>
<path fill="none" stroke="#c0c0c0" stroke-width="2" d="M278.2391,-143.6921C280.0384,-125.4811 283.0638,-96.7593 286.5,-72 287.6575,-63.6597 289.0917,-54.6248 290.4725,-46.3749"/>
<polygon fill="#c0c0c0" stroke="#c0c0c0" stroke-width="2" points="293.9329,-46.9031 292.1681,-36.4563 287.033,-45.7235 293.9329,-46.9031"/>
</g>
<!-- 4 -->
<g id="node5" class="node">
<title>4</title>
<path fill="none" stroke="#70d856" stroke-width="2" d="M339.5,-108C339.5,-108 307.5,-108 307.5,-108 301.5,-108 295.5,-102 295.5,-96 295.5,-96 295.5,-84 295.5,-84 295.5,-78 301.5,-72 307.5,-72 307.5,-72 339.5,-72 339.5,-72 345.5,-72 351.5,-78 351.5,-84 351.5,-84 351.5,-96 351.5,-96 351.5,-102 345.5,-108 339.5,-108"/>
<text text-anchor="middle" x="323.5" y="-87.5" font-family="sans" font-size="10.00" fill="#000000">multiQC</text>
</g>
<!-- 1&#45;&gt;4 -->
<g id="edge7" class="edge">
<title>1&#45;&gt;4</title>
<path fill="none" stroke="#c0c0c0" stroke-width="2" d="M288.3601,-143.8314C293.6629,-135.7079 300.0237,-125.9637 305.8673,-117.0118"/>
<polygon fill="#c0c0c0" stroke="#c0c0c0" stroke-width="2" points="308.9448,-118.7003 311.4802,-108.4133 303.0831,-114.8739 308.9448,-118.7003"/>
</g>
<!-- 2 -->
<g id="node3" class="node">
<title>2</title>
<path fill="none" stroke="#ced856" stroke-width="2" d="M382,-252C382,-252 281,-252 281,-252 275,-252 269,-246 269,-240 269,-240 269,-228 269,-228 269,-222 275,-216 281,-216 281,-216 382,-216 382,-216 388,-216 394,-222 394,-228 394,-228 394,-240 394,-240 394,-246 388,-252 382,-252"/>
<text text-anchor="middle" x="331.5" y="-231.5" font-family="sans" font-size="10.00" fill="#000000">salmon_quantification</text>
</g>
<!-- 2&#45;&gt;0 -->
<g id="edge3" class="edge">
<title>2&#45;&gt;0</title>
<path fill="none" stroke="#c0c0c0" stroke-width="2" d="M341.5066,-215.8276C357.1233,-184.8574 383.2599,-120.4976 360.5,-72 354.1805,-58.5342 342.6708,-47.2644 331.0734,-38.5633"/>
<polygon fill="#c0c0c0" stroke="#c0c0c0" stroke-width="2" points="332.8844,-35.5586 322.6862,-32.6868 328.8677,-41.2915 332.8844,-35.5586"/>
</g>
<!-- 2&#45;&gt;4 -->
<g id="edge8" class="edge">
<title>2&#45;&gt;4</title>
<path fill="none" stroke="#c0c0c0" stroke-width="2" d="M330.4868,-215.7623C329.1223,-191.201 326.6804,-147.2474 325.0752,-118.3541"/>
<polygon fill="#c0c0c0" stroke="#c0c0c0" stroke-width="2" points="328.5544,-117.88 324.505,-108.0896 321.5652,-118.2684 328.5544,-117.88"/>
</g>
<!-- 6 -->
<g id="node7" class="node">
<title>6</title>
<path fill="none" stroke="#5682d8" stroke-width="2" d="M219,-180C219,-180 180,-180 180,-180 174,-180 168,-174 168,-168 168,-168 168,-156 168,-156 168,-150 174,-144 180,-144 180,-144 219,-144 219,-144 225,-144 231,-150 231,-156 231,-156 231,-168 231,-168 231,-174 225,-180 219,-180"/>
<text text-anchor="middle" x="199.5" y="-159.5" font-family="sans" font-size="10.00" fill="#000000">do_deseq</text>
</g>
<!-- 2&#45;&gt;6 -->
<g id="edge9" class="edge">
<title>2&#45;&gt;6</title>
<path fill="none" stroke="#c0c0c0" stroke-width="2" d="M298.1908,-215.8314C280.6007,-206.2368 258.866,-194.3815 240.2747,-184.2407"/>
<polygon fill="#c0c0c0" stroke="#c0c0c0" stroke-width="2" points="241.8874,-181.1336 231.4325,-179.4177 238.5354,-187.2789 241.8874,-181.1336"/>
</g>
<!-- 3 -->
<g id="node4" class="node">
<title>3</title>
<path fill="none" stroke="#d8b456" stroke-width="2" d="M227.5,-108C227.5,-108 171.5,-108 171.5,-108 165.5,-108 159.5,-102 159.5,-96 159.5,-96 159.5,-84 159.5,-84 159.5,-78 165.5,-72 171.5,-72 171.5,-72 227.5,-72 227.5,-72 233.5,-72 239.5,-78 239.5,-84 239.5,-84 239.5,-96 239.5,-96 239.5,-102 233.5,-108 227.5,-108"/>
<text text-anchor="middle" x="199.5" y="-87.5" font-family="sans" font-size="10.00" fill="#000000">deseq_report</text>
</g>
<!-- 3&#45;&gt;0 -->
<g id="edge4" class="edge">
<title>3&#45;&gt;0</title>
<path fill="none" stroke="#c0c0c0" stroke-width="2" d="M223.7249,-71.8314C235.6628,-62.8779 250.2256,-51.9558 263.106,-42.2955"/>
<polygon fill="#c0c0c0" stroke="#c0c0c0" stroke-width="2" points="265.3829,-44.9629 271.2829,-36.1628 261.1829,-39.3629 265.3829,-44.9629"/>
</g>
<!-- 4&#45;&gt;0 -->
<g id="edge2" class="edge">
<title>4&#45;&gt;0</title>
<path fill="none" stroke="#c0c0c0" stroke-width="2" d="M316.4344,-71.8314C313.374,-63.9617 309.7221,-54.5712 306.3318,-45.8533"/>
<polygon fill="#c0c0c0" stroke="#c0c0c0" stroke-width="2" points="309.5473,-44.4647 302.6607,-36.4133 303.0232,-47.0019 309.5473,-44.4647"/>
</g>
<!-- 5 -->
<g id="node6" class="node">
<title>5</title>
<path fill="none" stroke="#56d8c9" stroke-width="2" d="M376.5,-324C376.5,-324 286.5,-324 286.5,-324 280.5,-324 274.5,-318 274.5,-312 274.5,-312 274.5,-300 274.5,-300 274.5,-294 280.5,-288 286.5,-288 286.5,-288 376.5,-288 376.5,-288 382.5,-288 388.5,-294 388.5,-300 388.5,-300 388.5,-312 388.5,-312 388.5,-318 382.5,-324 376.5,-324"/>
<text text-anchor="middle" x="331.5" y="-303.5" font-family="sans" font-size="10.00" fill="#000000">salmon_build_index</text>
</g>
<!-- 5&#45;&gt;2 -->
<g id="edge5" class="edge">
<title>5&#45;&gt;2</title>
<path fill="none" stroke="#c0c0c0" stroke-width="2" d="M331.5,-287.8314C331.5,-280.131 331.5,-270.9743 331.5,-262.4166"/>
<polygon fill="#c0c0c0" stroke="#c0c0c0" stroke-width="2" points="335.0001,-262.4132 331.5,-252.4133 328.0001,-262.4133 335.0001,-262.4132"/>
</g>
<!-- 6&#45;&gt;3 -->
<g id="edge6" class="edge">
<title>6&#45;&gt;3</title>
<path fill="none" stroke="#c0c0c0" stroke-width="2" d="M199.5,-143.8314C199.5,-136.131 199.5,-126.9743 199.5,-118.4166"/>
<polygon fill="#c0c0c0" stroke="#c0c0c0" stroke-width="2" points="203.0001,-118.4132 199.5,-108.4133 196.0001,-118.4133 203.0001,-118.4132"/>
</g>
<!-- 7 -->
<g id="node8" class="node">
<title>7</title>
<path fill="none" stroke="#d85656" stroke-width="2" d="M123,-252C123,-252 12,-252 12,-252 6,-252 0,-246 0,-240 0,-240 0,-228 0,-228 0,-222 6,-216 12,-216 12,-216 123,-216 123,-216 129,-216 135,-222 135,-228 135,-228 135,-240 135,-240 135,-246 129,-252 123,-252"/>
<text text-anchor="middle" x="67.5" y="-231.5" font-family="sans" font-size="10.00" fill="#000000">create_config_for_deseq</text>
</g>
<!-- 7&#45;&gt;6 -->
<g id="edge10" class="edge">
<title>7&#45;&gt;6</title>
<path fill="none" stroke="#c0c0c0" stroke-width="2" d="M100.8092,-215.8314C118.3993,-206.2368 140.134,-194.3815 158.7253,-184.2407"/>
<polygon fill="#c0c0c0" stroke="#c0c0c0" stroke-width="2" points="160.4646,-187.2789 167.5675,-179.4177 157.1126,-181.1336 160.4646,-187.2789"/>
</g>
<!-- 8 -->
<g id="node9" class="node">
<title>8</title>
<path fill="none" stroke="#d88556" stroke-width="2" d="M237.5,-252C237.5,-252 165.5,-252 165.5,-252 159.5,-252 153.5,-246 153.5,-240 153.5,-240 153.5,-228 153.5,-228 153.5,-222 159.5,-216 165.5,-216 165.5,-216 237.5,-216 237.5,-216 243.5,-216 249.5,-222 249.5,-228 249.5,-228 249.5,-240 249.5,-240 249.5,-246 243.5,-252 237.5,-252"/>
<text text-anchor="middle" x="201.5" y="-231.5" font-family="sans" font-size="10.00" fill="#000000">parseTranscripts</text>
</g>
<!-- 8&#45;&gt;6 -->
<g id="edge11" class="edge">
<title>8&#45;&gt;6</title>
<path fill="none" stroke="#c0c0c0" stroke-width="2" d="M200.9953,-215.8314C200.7814,-208.131 200.5271,-198.9743 200.2894,-190.4166"/>
<polygon fill="#c0c0c0" stroke="#c0c0c0" stroke-width="2" points="203.7879,-190.3122 200.0115,-180.4133 196.7906,-190.5066 203.7879,-190.3122"/>
</g>
</g>
</svg>
